<?xml version="1.0" encoding="utf-8"?>
<!-- Generator: Adobe Illustrator 27.3.1, SVG Export Plug-In . SVG Version: 6.00 Build 0)  -->
<svg version="1.1" id="Слой_1" xmlns="http://www.w3.org/2000/svg" xmlns:xlink="http://www.w3.org/1999/xlink" x="0px" y="0px"
	 viewBox="0 0 120 42" style="enable-background:new 0 0 120 42;" xml:space="preserve">
<style type="text/css">
	.st0{fill:#6D687B;}
	.st1{fill:#231F20;}
	.st2{fill:url(#SVGID_1_);}
	.st3{fill:url(#SVGID_00000093142808108424286290000006926000500905153719_);}
</style>
<g>
	<g>
		<path class="st0" d="M8.6,39.8c-0.6,0-1.1-0.1-1.6-0.3c-0.5-0.2-0.8-0.5-1.1-0.9c-0.3-0.4-0.4-0.9-0.4-1.4v-4.5
			c0-0.1,0-0.3,0.1-0.4c0.1-0.1,0.2-0.1,0.4-0.1c0.1,0,0.3,0,0.4,0.1c0.1,0.1,0.1,0.2,0.1,0.4v4.5c0,0.3,0.1,0.6,0.3,0.9
			c0.2,0.3,0.5,0.5,0.8,0.6c0.4,0.2,0.7,0.2,1.1,0.2c0.4,0,0.7-0.1,1.1-0.2c0.3-0.1,0.5-0.4,0.7-0.6c0.2-0.3,0.3-0.6,0.3-0.9v-4.5
			c0-0.1,0-0.3,0.1-0.4c0.1-0.1,0.2-0.1,0.4-0.1c0.1,0,0.3,0,0.4,0.1c0.1,0.1,0.1,0.2,0.1,0.4v4.5c0,0.5-0.1,1-0.4,1.4
			c-0.3,0.4-0.6,0.7-1.1,0.9C9.7,39.7,9.2,39.8,8.6,39.8z"/>
		<path class="st0" d="M14.5,39.7c-0.1,0-0.3,0-0.4-0.1C14,39.4,14,39.3,14,39.2v-6.5c0-0.1,0-0.3,0.1-0.4c0.2-0.2,0.5-0.2,0.7,0
			c0,0,0,0,0,0l4.2,5.6v-5.3c0-0.1,0-0.3,0.1-0.4c0.2-0.2,0.5-0.2,0.7,0c0.1,0.1,0.1,0.2,0.1,0.4v6.5c0,0.1,0,0.3-0.1,0.4
			c-0.1,0.1-0.2,0.1-0.4,0.1c-0.1,0-0.1,0-0.2,0c-0.1,0-0.1-0.1-0.2-0.1L15,34v5.2C15,39.5,14.8,39.7,14.5,39.7
			C14.5,39.7,14.5,39.7,14.5,39.7L14.5,39.7z"/>
		<path class="st0" d="M22.8,39.7c-0.1,0-0.3-0.1-0.4-0.1c-0.1-0.1-0.1-0.2-0.1-0.4v-6.5c0-0.1,0-0.3,0.1-0.4
			c0.1-0.1,0.2-0.1,0.4-0.1h2.3c0.4,0,0.8,0.1,1.2,0.3c0.3,0.2,0.6,0.4,0.8,0.7c0.2,0.3,0.3,0.7,0.3,1c0,0.3-0.1,0.6-0.3,0.8
			c-0.2,0.3-0.4,0.5-0.7,0.6c0.4,0.1,0.8,0.3,1,0.6c0.3,0.3,0.4,0.8,0.4,1.2c0,0.4-0.1,0.8-0.3,1.2c-0.2,0.4-0.5,0.6-0.8,0.8
			c-0.4,0.2-0.8,0.3-1.3,0.3L22.8,39.7z M23.3,35.2h1.8c0.3,0,0.6-0.1,0.9-0.3c0.3-0.2,0.4-0.5,0.4-0.8c0-0.3-0.1-0.6-0.4-0.8
			c-0.3-0.2-0.6-0.3-0.9-0.3h-1.8V35.2z M23.3,38.7h2c0.3,0,0.5,0,0.8-0.2c0.2-0.1,0.4-0.3,0.5-0.5c0.1-0.2,0.2-0.5,0.2-0.7
			c0-0.2-0.1-0.5-0.2-0.7c-0.1-0.2-0.3-0.3-0.5-0.4c-0.2-0.1-0.5-0.1-0.8-0.1h-2V38.7z"/>
		<path class="st0" d="M30.2,39.7c-0.1,0-0.3,0-0.3-0.1c-0.1-0.1-0.1-0.2-0.1-0.4v-6.5c0-0.1,0-0.3,0.1-0.4c0.1-0.1,0.2-0.1,0.3-0.1
			c0.1,0,0.3,0,0.4,0.1c0.1,0.1,0.1,0.2,0.1,0.4v6h3.5c0.1,0,0.3,0,0.4,0.1c0.2,0.2,0.2,0.5,0,0.7c-0.1,0.1-0.2,0.1-0.4,0.1
			L30.2,39.7z"/>
		<path class="st0" d="M39,39.8c-0.5,0-1.1-0.1-1.5-0.3c-0.5-0.2-0.9-0.4-1.2-0.8c-0.3-0.4-0.6-0.8-0.8-1.2c-0.4-1-0.4-2.1,0-3.1
			c0.2-0.5,0.4-0.9,0.8-1.2c0.3-0.3,0.8-0.6,1.2-0.8c1-0.4,2.1-0.4,3.1,0c0.9,0.4,1.6,1.1,2,2c0.4,1,0.4,2.1,0,3.1
			c-0.4,0.9-1.1,1.7-2,2C40.1,39.7,39.6,39.8,39,39.8z M39,38.9c0.4,0,0.8-0.1,1.1-0.2c0.3-0.1,0.7-0.4,0.9-0.6
			c0.3-0.3,0.5-0.6,0.6-0.9c0.1-0.4,0.2-0.8,0.2-1.2c0-0.4-0.1-0.8-0.2-1.2c-0.1-0.3-0.3-0.7-0.6-0.9c-0.3-0.3-0.6-0.5-0.9-0.6
			c-0.7-0.3-1.6-0.3-2.3,0c-0.3,0.1-0.7,0.4-0.9,0.6c-0.3,0.3-0.5,0.6-0.6,0.9c-0.1,0.4-0.2,0.8-0.2,1.2c0,0.4,0.1,0.8,0.2,1.2
			c0.1,0.3,0.3,0.7,0.6,0.9c0.3,0.3,0.6,0.5,0.9,0.6C38.3,38.8,38.6,38.9,39,38.9z"/>
		<path class="st0" d="M48,39.8c-0.5,0-1-0.1-1.5-0.3c-0.4-0.2-0.8-0.5-1.2-0.8c-0.3-0.4-0.6-0.8-0.8-1.2c-0.2-0.5-0.3-1-0.3-1.5
			c0-0.5,0.1-1,0.3-1.5c0.2-0.5,0.4-0.9,0.8-1.2c0.3-0.4,0.7-0.6,1.2-0.8c0.5-0.2,1-0.3,1.5-0.3c0.4,0,0.9,0.1,1.3,0.2
			c0.4,0.1,0.8,0.4,1.1,0.6c0,0,0.1,0.1,0.1,0.1c0,0,0.1,0.1,0.1,0.1c0,0.1,0,0.1,0,0.2c0,0.1,0,0.2-0.1,0.3c-0.2,0.2-0.5,0.2-0.7,0
			c-0.2-0.2-0.5-0.4-0.7-0.5c-0.3-0.1-0.7-0.2-1-0.2c-0.4,0-0.7,0.1-1.1,0.2c-0.3,0.2-0.6,0.4-0.8,0.6c-0.5,0.6-0.8,1.3-0.8,2.1
			c0,0.4,0.1,0.8,0.2,1.2c0.1,0.3,0.3,0.7,0.6,0.9c0.2,0.3,0.5,0.5,0.8,0.6c0.3,0.1,0.7,0.2,1.1,0.2c0.3,0,0.6-0.1,0.9-0.2
			c0.3-0.1,0.6-0.3,0.8-0.5c0.1-0.1,0.2-0.1,0.3-0.1c0.1,0,0.2,0.1,0.3,0.1c0.1,0.1,0.1,0.2,0.1,0.3c0,0.1,0,0.1,0,0.2
			c0,0.1-0.1,0.1-0.1,0.2c-0.3,0.3-0.7,0.5-1.1,0.7C48.8,39.7,48.4,39.8,48,39.8z"/>
		<path class="st0" d="M53,39.7c-0.1,0-0.3,0-0.4-0.1c-0.1-0.1-0.1-0.2-0.1-0.4v-6.6c0-0.1,0-0.3,0.1-0.4c0.2-0.2,0.5-0.2,0.7,0
			c0.1,0.1,0.1,0.2,0.1,0.4v2.9l3.2-3.2c0.1-0.1,0.1-0.1,0.2-0.2c0.1,0,0.1,0,0.2,0c0.1,0,0.3,0,0.3,0.1c0.1,0.1,0.1,0.2,0.1,0.3
			c0,0.1-0.1,0.3-0.2,0.4l-2.5,2.5l2.5,3.4c0.1,0.1,0.1,0.2,0.1,0.3c0,0.1-0.1,0.2-0.1,0.3c-0.1,0.1-0.2,0.1-0.3,0.1
			c-0.2,0-0.3-0.1-0.4-0.2l-2.4-3.3l-0.7,0.7v2.3c0,0.1,0,0.3-0.1,0.4C53.2,39.6,53.1,39.7,53,39.7z"/>
		<path class="st0" d="M59.8,39.7c-0.3,0-0.5-0.2-0.5-0.5c0,0,0,0,0,0v-6.5c0-0.1,0-0.3,0.1-0.4c0.1-0.1,0.2-0.1,0.4-0.1h4.3
			c0.1,0,0.3,0,0.4,0.1c0.1,0.1,0.1,0.2,0.1,0.3c0,0.1,0,0.2-0.1,0.3c-0.1,0.1-0.2,0.1-0.4,0.1h-3.8v2.3H63c0.1,0,0.3,0,0.4,0.1
			c0.1,0.1,0.1,0.2,0.1,0.3c0,0.1,0,0.2-0.1,0.3c-0.1,0.1-0.2,0.1-0.4,0.1h-2.8v2.4h3.8c0.1,0,0.3,0,0.4,0.1
			c0.1,0.1,0.1,0.2,0.1,0.3c0,0.2,0,0.3-0.2,0.4c-0.1,0.1-0.2,0.1-0.4,0.1L59.8,39.7z"/>
		<path class="st0" d="M66.9,39.7c-0.1,0-0.3,0-0.4-0.1c-0.1-0.1-0.2-0.2-0.1-0.4v-6.5c0-0.1,0-0.3,0.1-0.4c0.1-0.1,0.2-0.1,0.4-0.1
			h1.7c0.5,0,1,0.1,1.5,0.3c0.9,0.4,1.6,1.1,2,2c0.4,1,0.4,2.1,0,3c-0.2,0.4-0.4,0.9-0.8,1.2c-0.3,0.3-0.7,0.6-1.2,0.8
			c-0.5,0.2-1,0.3-1.5,0.3H66.9z M67.4,38.8h1.3c0.5,0,1-0.1,1.4-0.4c0.4-0.2,0.7-0.6,1-1c0.5-0.9,0.5-2,0-3c-0.2-0.4-0.6-0.8-1-1
			c-0.4-0.3-0.9-0.4-1.4-0.4h-1.3V38.8z"/>
		<path class="st0" d="M80.9,39.8c-0.5,0-1-0.1-1.5-0.3c-0.4-0.2-0.8-0.5-1.2-0.8c-0.3-0.4-0.6-0.8-0.8-1.2c-0.2-0.5-0.3-1-0.3-1.5
			c0-0.5,0.1-1,0.3-1.5c0.2-0.5,0.5-0.9,0.8-1.2c0.7-0.7,1.6-1.1,2.6-1.1c0.4,0,0.9,0.1,1.3,0.2c0.4,0.1,0.8,0.4,1.1,0.6
			c0,0,0.1,0.1,0.1,0.1c0,0,0,0.1,0.1,0.1c0,0.1,0,0.1,0,0.2c0,0.1,0,0.2-0.1,0.3c-0.1,0.1-0.2,0.1-0.3,0.1c-0.1,0-0.3,0-0.4-0.1
			c-0.2-0.2-0.5-0.4-0.7-0.5c-0.3-0.1-0.7-0.2-1-0.2c-0.4,0-0.7,0.1-1.1,0.2c-0.3,0.2-0.6,0.4-0.8,0.6c-0.3,0.3-0.5,0.6-0.6,0.9
			c-0.1,0.4-0.2,0.8-0.2,1.1c0,0.4,0.1,0.8,0.2,1.1c0.3,0.7,0.8,1.3,1.5,1.6c0.3,0.1,0.7,0.2,1.1,0.2c0.3,0,0.6-0.1,0.9-0.2
			c0.3-0.1,0.6-0.3,0.8-0.5c0.1-0.1,0.2-0.1,0.3-0.1c0.1,0,0.2,0.1,0.3,0.1c0.1,0.1,0.1,0.2,0.1,0.3c0,0.1,0,0.1,0,0.2
			c0,0.1-0.1,0.1-0.1,0.2c-0.3,0.3-0.7,0.5-1.1,0.6C81.7,39.7,81.3,39.8,80.9,39.8z M83.4,38.6l-1-0.2v-1.7h-1.3
			c-0.1,0-0.3,0-0.4-0.1c-0.1-0.1-0.1-0.2-0.1-0.3c0-0.1,0-0.2,0.1-0.3c0.1-0.1,0.2-0.1,0.4-0.1h1.8c0.1,0,0.3,0,0.4,0.1
			c0.1,0.1,0.1,0.2,0.1,0.4L83.4,38.6z"/>
		<path class="st0" d="M85.1,39.7c-0.2,0-0.3-0.1-0.4-0.2c-0.1-0.2-0.1-0.3,0-0.5l2.6-6.5c0.1-0.2,0.3-0.3,0.5-0.3
			c0.2,0,0.4,0.1,0.5,0.3l2.7,6.5c0.1,0.1,0.1,0.3,0,0.5c-0.1,0.1-0.3,0.2-0.4,0.2c-0.1,0-0.2,0-0.3-0.1c-0.1,0-0.2-0.1-0.2-0.2
			l-2.4-5.9h0.3l-2.4,5.9c0,0.1-0.1,0.2-0.2,0.2C85.2,39.6,85.2,39.7,85.1,39.7z M85.6,38l0.4-0.8h3.8l0.4,0.8H85.6z"/>
		<path class="st0" d="M93,39.7c-0.1,0-0.3-0.1-0.4-0.1c-0.1-0.1-0.1-0.2-0.1-0.4v-6.5c0-0.3,0.2-0.5,0.5-0.5c0,0,0,0,0,0
			c0.2,0,0.4,0.1,0.4,0.3l3,6h-0.3l2.9-6c0.1-0.2,0.4-0.3,0.7-0.2c0,0,0.1,0,0.1,0.1c0.1,0.1,0.2,0.2,0.2,0.4v6.5
			c0,0.1-0.1,0.3-0.2,0.4c-0.2,0.2-0.5,0.2-0.7,0c-0.1-0.1-0.1-0.2-0.1-0.4V34h0.2l-2.5,5.1c-0.1,0.2-0.3,0.3-0.4,0.3
			c-0.2,0-0.4-0.1-0.5-0.3l-2.5-5l0.2-0.1v5.1c0,0.1,0,0.3-0.1,0.4C93.3,39.6,93.1,39.7,93,39.7z"/>
		<path class="st0" d="M102.8,39.7c-0.1,0-0.3-0.1-0.4-0.1c-0.1-0.1-0.1-0.2-0.1-0.4v-6.5c0-0.1,0-0.3,0.1-0.4
			c0.1-0.1,0.2-0.1,0.4-0.1h4.4c0.1,0,0.3,0,0.4,0.1c0.1,0.1,0.1,0.2,0.1,0.3c0,0.1,0,0.2-0.1,0.3c-0.1,0.1-0.2,0.1-0.4,0.1h-3.8
			v2.3h2.8c0.1,0,0.3,0,0.4,0.1c0.1,0.1,0.1,0.2,0.1,0.3c0,0.1,0,0.2-0.1,0.3c-0.1,0.1-0.2,0.1-0.4,0.1h-2.8v2.4h3.9
			c0.1,0,0.3,0,0.4,0.1c0.1,0.1,0.1,0.2,0.1,0.3c0,0.1,0,0.3-0.1,0.3c-0.1,0.1-0.2,0.1-0.4,0.1L102.8,39.7z"/>
		<path class="st0" d="M111.8,39.8c-0.4,0-0.8-0.1-1.2-0.2c-0.4-0.1-0.7-0.3-1-0.5c-0.3-0.2-0.5-0.5-0.6-0.8c-0.1-0.1-0.1-0.3,0-0.4
			c0.1-0.1,0.2-0.2,0.3-0.2c0.1,0,0.2,0,0.3,0.1c0.1,0.1,0.2,0.2,0.3,0.3c0.1,0.2,0.2,0.3,0.4,0.4c0.2,0.1,0.4,0.3,0.6,0.3
			c0.5,0.2,1.1,0.2,1.6,0c0.2-0.1,0.5-0.2,0.6-0.4c0.2-0.2,0.2-0.4,0.2-0.7c0-0.3-0.1-0.7-0.4-0.9c-0.4-0.3-0.8-0.5-1.3-0.5
			c-0.7,0-1.3-0.3-1.9-0.7c-0.4-0.4-0.7-0.9-0.7-1.4c0-0.4,0.1-0.8,0.4-1.1c0.3-0.3,0.6-0.5,1-0.7c0.4-0.2,0.9-0.2,1.4-0.2
			c0.3,0,0.7,0.1,1,0.2c0.3,0.1,0.5,0.3,0.8,0.4c0.2,0.2,0.4,0.4,0.6,0.7c0.1,0.1,0.1,0.3,0.1,0.4c0,0.1-0.1,0.2-0.2,0.3
			c-0.1,0.1-0.3,0.1-0.4,0c-0.1,0-0.2-0.1-0.3-0.2c-0.1-0.2-0.2-0.3-0.4-0.5c-0.2-0.1-0.3-0.2-0.5-0.3c-0.2-0.1-0.5-0.1-0.7-0.1
			c-0.4,0-0.8,0.1-1.2,0.3c-0.3,0.2-0.5,0.5-0.5,0.8c0,0.2,0.1,0.4,0.2,0.6c0.1,0.2,0.3,0.4,0.6,0.5c0.4,0.2,0.8,0.2,1.2,0.3
			c0.7,0,1.3,0.3,1.8,0.7c0.4,0.4,0.7,1,0.6,1.5c0,0.3-0.1,0.7-0.2,0.9c-0.1,0.3-0.4,0.5-0.6,0.7c-0.3,0.2-0.5,0.3-0.8,0.4
			C112.5,39.7,112.2,39.7,111.8,39.8z"/>
	</g>
	<g>
		<g>
			<path class="st1" d="M20.2,5.1c0-3.1,4.5-3.3,4.5,0v12.4c0,12.9-20.7,12.9-20.7,0V5.1c0-3.1,4.5-3.2,4.5,0v12.4
				c0,6.8,11.7,7.2,11.7,0V5.1z"/>
			<path class="st1" d="M31.6,26.6c-1.2,0-2.1-0.9-2.1-2.1V4.9c0-1.2,0.9-2.1,2.1-2.1h9.7c4.5,0,6.9,3.1,6.9,6.6
				c0,1.5-0.4,3.1-1.9,4.3c2.7,1.1,3.9,3.2,3.9,5.7c0,4-2.7,7.2-7.8,7.2H31.6z M41.2,7H34v5.1h7.3c1.5,0,2.4-0.9,2.4-2.7
				C43.6,8.2,42.7,7,41.2,7z M34,22.4h8.4c4,0,4-6.1,0-6.1c-2.6,0-5.7,0-8.4,0V22.4z"/>
			<path class="st1" d="M74.5,23.9c-2.4,2-5.4,2.9-8.5,2.9c-7.2,0-12.3-4.1-12.3-12.3c0-6.9,5.4-12.3,12.6-12.3c2.7,0,5.7,0.9,7.8,3
				c2.1,2.1-0.9,5.1-3,3.3c-1.3-1.2-3.1-2.2-4.8-2.2c-4.2,0-8.2,3.3-8.2,8.2c0,5.1,3.4,8.2,7.9,8.2c2.1,0,3.9-0.6,5.2-1.5v-4.2h-5.2
				c-3.1,0-2.7-4.2,0-4.2h6.9c1.3,0,2.4,1,2.4,2v7.3C75.4,22.7,75.1,23.3,74.5,23.9z"/>
		</g>
		<g>
			<linearGradient id="SVGID_1_" gradientUnits="userSpaceOnUse" x1="83.8479" y1="-2.1856" x2="87.89" y2="15.6249">
				<stop  offset="0" style="stop-color:#15FEFD"/>
				<stop  offset="1" style="stop-color:#E501FD"/>
			</linearGradient>
			<path class="st2" d="M89.5,7h-9.2c-3.1,0-3-4.2,0-4.2h12.4c2.2,0,3,1.9,2.2,3.4L84.6,25.4c-1.2,2.5-5.5,0.9-4-1.8L89.5,7z"/>
			
				<linearGradient id="SVGID_00000056424304595299890860000010138172432594408599_" gradientUnits="userSpaceOnUse" x1="102.0852" y1="-6.3246" x2="106.1273" y2="11.4859">
				<stop  offset="0" style="stop-color:#15FEFD"/>
				<stop  offset="1" style="stop-color:#E501FD"/>
			</linearGradient>
			<path style="fill:url(#SVGID_00000056424304595299890860000010138172432594408599_);" d="M98,11.3c0.9-4.7,4.1-8.8,9.9-8.8
				c2.4,0,4.9,0.9,6.3,2.2c2.3,2.4-0.9,5.1-2.8,3.5c-1-0.8-2.3-1.2-3.4-1.2c-4.5,0-5.4,2.9-5.8,6.2c1.8-1.2,3.3-1.5,5.5-1.5
				c4.5,0,8.4,2.7,8.4,7.5c0,4.8-3.6,7.8-8.7,7.8C97.9,26.9,96.7,18.3,98,11.3z M102.7,19.2c0,1.7,1.7,3.2,4.6,3.2
				c2.7,0,4.2-1.5,4.2-3.3s-1.2-3.3-4.2-3.3C104,15.8,102.7,17.5,102.7,19.2z"/>
		</g>
	</g>
</g>
</svg>
