<?xml version="1.0" standalone="no"?>
<!DOCTYPE svg PUBLIC "-//W3C//DTD SVG 20010904//EN"
 "http://www.w3.org/TR/2001/REC-SVG-20010904/DTD/svg10.dtd">
<svg version="1.0" xmlns="http://www.w3.org/2000/svg"
 width="200.000000pt" height="70.000000pt" viewBox="0 0 200.000000 70.000000"
 preserveAspectRatio="xMidYMid meet">
<metadata>
Created by potrace 1.10, written by Peter Selinger 2001-2011
</metadata>
<g transform="translate(0.000000,70.000000) scale(0.100000,-0.100000)"
fill="#000000" stroke="none">
<path d="M792 533 c-21 -8 -42 -59 -42 -101 0 -52 43 -95 91 -90 23 2 35 9 37
21 4 18 2 18 -22 2 -14 -9 -33 -15 -43 -12 -14 4 -14 5 4 6 48 2 74 93 31 107
-13 4 -24 5 -25 3 -1 -2 -9 5 -17 16 -13 17 -13 21 0 28 17 10 54 0 54 -14 0
-5 -4 -9 -10 -9 -5 0 -10 5 -10 10 0 6 -7 10 -15 10 -8 0 -15 -5 -15 -11 0 -5
5 -7 10 -4 6 3 10 2 10 -3 0 -18 41 -21 47 -5 12 30 -46 62 -85 46z m26 -69
c33 -16 50 -34 33 -34 -6 0 -8 -7 -5 -15 4 -8 1 -22 -6 -30 -14 -17 -40 -20
-40 -5 0 5 6 7 13 4 10 -3 14 5 15 31 1 28 -2 35 -17 35 -12 0 -23 -11 -29
-27 -10 -28 -10 -28 -11 8 -1 30 5 49 14 49 1 0 16 -7 33 -16z m-2 -40 c-3 -9
-6 -18 -6 -20 0 -3 -4 -3 -10 1 -11 7 -2 35 12 35 6 0 7 -7 4 -16z"/>
<path d="M917 528 c-21 -16 -37 -60 -37 -101 0 -45 48 -89 92 -85 17 2 34 9
36 17 4 11 0 12 -14 6 -11 -4 -28 -9 -39 -10 -13 -1 -14 -1 -3 2 46 11 66 96
26 109 -13 5 -26 7 -30 6 -12 -3 -10 16 2 23 6 3 10 2 10 -3 0 -5 9 -12 21
-15 31 -8 37 22 10 45 -27 21 -51 23 -74 6z m29 -24 c-23 -23 -20 -34 14 -45
26 -9 29 -15 24 -37 -11 -44 -29 -58 -58 -43 -41 22 -40 95 2 129 23 17 36 15
18 -4z m44 -4 c0 -5 -4 -10 -10 -10 -5 0 -10 5 -10 10 0 6 5 10 10 10 6 0 10
-4 10 -10z"/>
<path d="M917 436 c11 -48 12 -50 33 -31 23 21 17 41 -14 47 -19 4 -22 1 -19
-16z m33 -10 c0 -8 -4 -18 -10 -21 -5 -3 -10 3 -10 14 0 12 5 21 10 21 6 0 10
-6 10 -14z"/>
<path d="M1020 471 c-15 -92 -6 -111 55 -111 47 0 48 1 39 36 -4 16 -11 20
-30 16 -14 -2 -24 0 -24 7 0 6 14 11 30 11 24 0 30 4 28 18 -2 11 4 18 20 20
12 2 20 8 16 13 -3 5 -10 7 -15 3 -20 -12 -71 -16 -64 -5 3 6 19 11 36 11 24
0 29 4 29 25 0 24 -3 25 -54 25 l-54 0 -12 -69z m110 37 c0 -4 -13 -8 -29 -8
-36 0 -43 -11 -51 -72 -5 -36 -3 -48 7 -48 7 0 13 5 13 10 0 6 7 10 15 10 9 0
12 -6 8 -16 -3 -9 -15 -14 -32 -12 -22 3 -26 8 -29 42 -5 55 5 85 31 96 26 10
67 9 67 -2z m-30 -58 c0 -5 -9 -10 -20 -10 -11 0 -20 5 -20 10 0 6 9 10 20 10
11 0 20 -4 20 -10z"/>
<path d="M1168 533 c-27 -7 -23 -43 4 -43 20 0 20 -2 -11 -34 -28 -29 -33 -40
-28 -64 7 -34 -4 -42 -54 -42 -17 0 -28 -4 -24 -9 6 -11 78 -2 83 11 2 4 21 8
42 8 21 0 41 6 43 13 3 7 6 5 6 -5 1 -14 -7 -18 -35 -18 -19 0 -33 -3 -31 -7
3 -5 28 -6 56 -5 46 4 51 6 51 28 0 15 -6 24 -15 24 -24 0 -18 18 16 48 26 23
29 30 20 52 -8 21 -10 22 -11 5 -1 -24 -38 -68 -65 -79 -20 -8 -20 -8 0 -16
17 -7 17 -9 3 -9 -10 -1 -18 -5 -18 -11 0 -5 -11 -10 -24 -10 -26 0 -43 37
-26 54 7 7 10 6 10 -2 0 -7 5 -12 11 -12 6 0 9 9 6 20 -3 11 -1 18 4 14 5 -3
9 2 9 11 0 9 4 14 9 10 5 -3 12 -1 16 5 3 5 1 10 -4 10 -6 0 -11 7 -11 15 0 8
5 15 10 15 6 0 10 -7 10 -15 0 -8 5 -15 10 -15 6 0 10 10 10 22 0 17 3 19 12
10 9 -9 4 -20 -22 -47 -19 -19 -29 -35 -24 -35 22 0 66 58 62 81 -2 20 -9 24
-43 26 -22 0 -48 -1 -57 -4z m22 -17 c0 -3 -4 -8 -10 -11 -5 -3 -10 -1 -10 4
0 6 5 11 10 11 6 0 10 -2 10 -4z"/>
<path d="M328 209 c-12 -50 -12 -59 0 -64 23 -9 24 -6 18 39 -4 24 -3 47 2 50
5 3 12 -16 15 -41 4 -36 1 -50 -10 -59 -14 -10 -14 -11 1 -17 10 -4 16 -1 16
8 0 8 7 15 16 15 8 0 13 -4 10 -9 -5 -7 15 -21 30 -21 10 0 3 29 -8 32 -9 3
-10 18 -2 61 8 43 8 57 -2 61 -7 3 -15 2 -18 -1 -9 -9 -7 -45 2 -39 4 2 6 -13
4 -35 -2 -21 -8 -37 -12 -34 -10 6 -20 45 -11 45 16 0 -2 58 -19 63 -15 4 -20
-6 -32 -54z"/>
<path d="M452 261 c-8 -4 -18 -27 -23 -51 -11 -48 0 -70 35 -70 35 0 49 15 42
44 -4 15 -2 26 4 26 18 0 11 39 -9 50 -24 12 -32 12 -49 1z m17 -33 c1 6 5 12
11 12 5 0 6 -8 3 -17 -6 -16 -5 -17 13 -3 17 14 18 14 6 -2 -8 -9 -11 -26 -8
-36 6 -19 -19 -40 -32 -27 -3 3 0 5 6 5 7 0 12 5 12 11 0 5 -4 7 -10 4 -5 -3
-10 1 -10 10 0 9 5 13 10 10 6 -3 10 -1 10 5 0 21 -24 4 -30 -21 -3 -13 -9
-19 -13 -13 -3 6 -1 28 5 50 9 33 12 36 19 19 4 -11 8 -14 8 -7z"/>
<path d="M531 224 c-14 -54 -2 -84 34 -84 18 0 25 5 25 20 0 11 -7 20 -15 20
-18 0 -18 4 -6 47 8 26 6 32 -9 36 -15 4 -20 -4 -29 -39z m24 -15 c-5 -22 -3
-34 6 -40 7 -4 10 -11 7 -14 -13 -14 -28 7 -28 39 0 30 6 46 17 46 3 0 2 -14
-2 -31z"/>
<path d="M616 248 c-19 -27 -21 -79 -4 -96 16 -16 53 -15 66 1 6 6 13 28 17
48 6 31 3 39 -16 53 -31 22 -45 20 -63 -6z m33 -70 c-11 -21 -11 -22 4 -9 10
7 17 25 17 39 0 18 3 23 10 16 14 -14 -4 -62 -25 -70 -8 -4 -22 -1 -30 6 -16
13 -20 55 -7 64 5 3 7 -9 5 -27 -3 -31 -3 -31 6 -5 5 14 13 32 17 40 15 22 17
-28 3 -54z"/>
<path d="M727 252 c-21 -23 -25 -75 -7 -97 10 -12 22 -15 44 -11 19 4 27 3 21
-3 -6 -5 -19 -11 -30 -13 -19 -4 -18 -4 3 -10 13 -4 28 -1 36 8 8 8 19 14 25
14 6 0 11 10 11 23 1 20 1 21 11 4 8 -14 7 -21 -6 -31 -16 -12 -16 -13 -1 -19
10 -4 16 -1 16 7 0 8 7 17 16 20 24 9 28 7 15 -7 -14 -17 -2 -30 15 -16 10 8
8 17 -8 45 -19 33 -20 36 -3 54 16 18 14 40 -5 40 -5 0 -16 -12 -25 -27 l-16
-28 5 26 c4 18 1 29 -8 32 -18 7 -26 -1 -26 -29 0 -13 -4 -25 -9 -28 -5 -3 -7
-16 -4 -29 5 -18 3 -20 -8 -9 -7 6 -21 12 -32 12 -14 0 -17 5 -12 23 4 12 12
27 18 32 7 7 8 4 4 -7 -8 -23 21 -25 30 -2 12 32 -45 54 -70 26z m9 -38 c-7
-28 10 -58 27 -47 6 3 7 1 3 -5 -13 -21 -46 6 -46 37 0 25 7 41 18 41 2 0 1
-12 -2 -26z m125 5 c10 13 19 19 19 14 0 -5 -6 -15 -12 -21 -10 -10 -10 -17 0
-32 8 -13 8 -20 2 -20 -6 0 -13 7 -16 15 -4 8 -15 15 -26 15 -14 0 -18 5 -14
16 3 9 6 21 7 27 0 7 5 1 10 -13 l10 -25 20 24z"/>
<path d="M927 261 c-10 -4 -18 -10 -17 -14 0 -4 -2 -23 -6 -42 -8 -42 7 -65
45 -66 l26 -1 -25 -7 c-32 -9 -13 -21 23 -14 25 5 39 23 17 23 -5 0 -10 7 -10
15 0 9 -10 20 -22 25 l-23 9 23 0 c23 1 30 15 12 26 -16 10 -42 -16 -37 -37 5
-18 -7 -25 -17 -10 -7 12 13 82 24 82 5 0 7 -6 4 -14 -4 -10 2 -12 20 -9 34 7
37 43 4 42 -13 0 -31 -4 -41 -8z"/>
<path d="M1018 263 c-25 -6 -36 -89 -15 -110 36 -37 112 30 87 77 -9 17 -43
42 -52 39 -2 -1 -11 -3 -20 -6z m13 -27 c-14 -17 -11 -66 4 -69 6 -1 18 14 27
33 17 34 18 34 18 8 0 -35 -35 -61 -62 -47 -15 8 -18 17 -12 42 3 18 12 35 18
39 17 12 20 9 7 -6z m29 -20 c0 -7 -7 -19 -15 -26 -12 -10 -15 -9 -15 7 0 11
3 23 7 26 11 12 23 8 23 -7z"/>
<path d="M1147 252 c-20 -22 -22 -83 -5 -100 7 -7 21 -12 33 -12 15 0 16 3 7
9 -8 4 -13 10 -12 12 1 2 -2 12 -5 21 -4 9 -1 27 6 40 7 14 14 18 17 10 5 -17
32 -15 32 3 0 9 -12 20 -26 25 -32 12 -28 13 -47 -8z m4 -39 c-12 -20 -14 -14
-5 12 4 9 9 14 11 11 3 -2 0 -13 -6 -23z"/>
<path d="M1272 263 c-14 -6 -52 -75 -52 -97 0 -24 20 -29 35 -10 10 14 14 15
15 5 0 -8 -7 -19 -16 -26 -16 -11 -16 -12 0 -18 10 -4 16 -1 16 8 0 8 9 15 20
15 18 0 20 7 20 59 0 58 -9 74 -38 64z m12 -34 c-3 -6 -1 -14 5 -18 8 -5 9
-15 2 -32 l-10 -24 0 24 -1 24 -25 -23 c-14 -13 -25 -19 -25 -14 1 14 29 61
30 49 0 -5 5 -2 11 8 5 9 12 17 15 17 3 0 2 -5 -2 -11z"/>
<path d="M1333 242 c-11 -46 -9 -95 6 -100 11 -4 12 4 7 39 -3 24 -2 51 4 59
5 8 10 12 11 8 1 -5 3 -12 4 -18 1 -5 3 -23 4 -40 1 -36 17 -40 23 -5 3 14 1
25 -3 25 -5 0 -9 11 -9 24 0 36 -38 42 -47 8z"/>
<path d="M1397 249 c-7 -24 3 -43 10 -21 3 6 11 12 20 12 11 0 10 -6 -6 -26
-24 -30 -28 -74 -7 -74 16 0 28 60 12 60 -6 0 -3 5 7 11 18 10 24 49 8 49 -5
0 -16 3 -24 6 -9 3 -16 -3 -20 -17z"/>
<path d="M1478 263 c-11 -3 -19 -19 -24 -49 -9 -59 -1 -74 38 -75 30 -1 31 -2
8 -8 -33 -9 -13 -19 24 -12 26 5 28 7 13 20 -10 7 -17 19 -17 26 0 7 -11 15
-25 17 -31 6 -33 -9 -2 -22 22 -10 22 -10 -3 -7 -20 2 -26 8 -28 35 -2 18 1
32 7 32 6 0 11 -7 11 -15 0 -8 9 -15 20 -15 13 0 20 6 19 18 0 10 -3 12 -6 4
-2 -6 -9 -10 -14 -6 -18 10 -9 24 16 24 15 0 25 -6 25 -14 0 -8 9 -18 20 -21
24 -8 26 -21 4 -29 -8 -3 -13 -2 -10 3 3 5 -1 11 -9 15 -26 9 -17 -24 9 -36
48 -21 89 22 48 50 -12 8 -22 21 -22 29 0 8 -4 12 -10 8 -5 -3 -6 -13 -3 -23
5 -14 3 -15 -8 -4 -11 10 -10 15 4 30 17 16 18 16 23 -6 4 -13 14 -22 25 -22
11 0 19 -4 19 -10 0 -5 5 -10 10 -10 6 0 10 7 10 15 0 8 -4 15 -10 15 -5 0
-10 6 -10 13 0 8 -11 19 -25 25 -25 12 -55 7 -55 -9 0 -5 -4 -9 -10 -9 -5 0
-9 6 -7 12 2 13 -27 19 -55 11z m39 -19 c-3 -3 -12 -4 -19 -1 -8 3 -5 6 6 6
11 1 17 -2 13 -5z m87 -63 c3 -5 -1 -14 -8 -20 -12 -10 -13 -8 -9 8 6 23 9 25
17 12z"/>
<path d="M1675 246 c-33 -50 -1 -127 43 -100 21 14 23 65 2 72 -13 5 -13 3 -1
-12 8 -9 11 -19 7 -23 -3 -3 -6 0 -6 8 0 12 -2 12 -10 -1 -6 -9 -5 -17 2 -21
7 -4 7 -9 0 -13 -6 -3 -14 4 -18 16 -4 13 -2 24 4 26 5 1 7 12 4 24 -4 18 -3
19 16 9 22 -12 43 3 26 19 -24 22 -53 21 -69 -4z m8 -31 c-3 -9 -8 -14 -10
-11 -3 3 -2 9 2 15 9 16 15 13 8 -4z"/>
<path d="M1770 250 c-13 -13 -20 -33 -20 -60 0 -32 -5 -42 -26 -53 -22 -12
-24 -15 -10 -20 9 -4 24 1 34 11 9 9 25 16 35 14 25 -5 47 16 47 43 0 44 -52
36 -63 -10 -3 -11 -5 -4 -4 15 1 19 7 35 12 35 6 0 16 4 23 8 7 5 12 4 12 -2
0 -6 7 -11 15 -11 8 0 15 -4 15 -10 0 -5 5 -10 10 -10 18 0 11 22 -16 46 -31
29 -38 30 -64 4z m22 -72 c-7 -7 -12 -8 -12 -2 0 14 12 26 19 19 2 -3 -1 -11
-7 -17z m23 -7 c-3 -12 -10 -21 -15 -21 -4 0 -3 11 3 24 14 29 22 27 12 -3z"/>
<path d="M237 253 c-2 -5 -7 -24 -11 -45 -7 -40 11 -68 44 -68 19 0 40 27 40
52 0 7 -6 2 -13 -11 -27 -53 -46 -21 -27 47 7 28 6 32 -10 32 -10 0 -21 -3
-23 -7z m10 -70 c-3 -10 -5 -4 -5 12 0 17 2 24 5 18 2 -7 2 -21 0 -30z"/>
<path d="M282 218 c-11 -41 -8 -68 3 -34 17 53 16 51 25 36 7 -11 10 -8 10 13
0 43 -26 33 -38 -15z"/>
<path d="M1890 230 c0 -5 5 -10 11 -10 5 0 7 5 4 10 -3 6 -8 10 -11 10 -2 0
-4 -4 -4 -10z"/>
<path d="M1170 205 c0 -12 24 -55 32 -55 4 0 8 14 8 30 0 23 -4 30 -20 30 -11
0 -20 -2 -20 -5z m30 -20 c0 -8 -2 -15 -4 -15 -2 0 -6 7 -10 15 -3 8 -1 15 4
15 6 0 10 -7 10 -15z"/>
<path d="M1091 162 c-6 -11 -22 -23 -37 -26 -20 -5 -24 -10 -16 -18 13 -13 59
13 69 38 9 23 -4 28 -16 6z"/>
<path d="M1837 160 c-3 -11 -15 -24 -28 -28 -19 -7 -20 -10 -5 -15 19 -7 56
24 56 48 0 22 -17 18 -23 -5z"/>
<path d="M1625 158 c-6 -9 -21 -21 -34 -26 -24 -9 -24 -9 -3 -14 28 -8 55 13
50 38 -3 17 -5 18 -13 2z"/>
<path d="M665 135 l-30 -14 31 -1 c19 0 34 6 38 15 6 18 1 18 -39 0z"/>
<path d="M1354 135 c-19 -14 -18 -14 4 -15 13 0 22 6 22 15 0 19 -1 19 -26 0z"/>
<path d="M276 131 c-20 -8 -20 -8 0 -13 23 -6 44 0 44 13 0 11 -17 11 -44 0z"/>
<path d="M476 131 c-12 -5 -16 -10 -9 -14 11 -7 63 8 63 18 0 7 -31 5 -54 -4z"/>
<path d="M577 133 c-27 -7 -11 -21 18 -16 13 3 22 9 19 14 -5 9 -8 10 -37 2z"/>
<path d="M1186 133 c-14 -4 -16 -7 -6 -13 15 -9 40 -2 40 11 0 9 -3 10 -34 2z"/>
<path d="M1306 132 c-3 -6 -1 -14 5 -17 15 -10 25 3 12 16 -7 7 -13 7 -17 1z"/>
<path d="M1426 131 c-3 -5 1 -11 9 -15 15 -6 29 7 18 18 -9 9 -21 8 -27 -3z"/>
<path d="M1170 80 c0 -5 5 -10 10 -10 6 0 10 5 10 10 0 6 -4 10 -10 10 -5 0
-10 -4 -10 -10z"/>
<path d="M1565 80 c3 -5 11 -10 16 -10 6 0 7 5 4 10 -3 6 -11 10 -16 10 -6 0
-7 -4 -4 -10z"/>
</g>
</svg>
